{"title":"All.Superheroes.Must.Die.2011.Swesub.DVDRip.Xvid.avi","uid":9710108,"size":733892608,"categoryP":"video","categoryS":"movies","magnet":"?xt=urn:btih:b0db5a8e864c260c15a314224bf1db430d56d1dd&amp;dn=All.Superheroes.Must.Die.2011.Swesub.DVDRip.Xvid.avi&amp;tr=udp%3A%2F%2Ftracker.openbittorrent.com%3A80&amp;tr=udp%3A%2F%2Fopen.demonii.com%3A1337&amp;tr=udp%3A%2F%2Ftracker.coppersurfer.tk%3A6969&amp;tr=udp%3A%2F%2Fexodus.desync.com%3A6969","seeders":1,"leechers":0,"uploader":null,"files":-1,"time":1394101731,"description":"Swedish Hardcoded sub\n &lt;a href=&quot;\nhttp://www.imdb.com/title/tt1836212/&quot; rel=&quot;nofollow&quot; target=&quot;_NEW&quot;&gt;\nhttp://www.imdb.com/title/tt1836212/&lt;/a&gt;\n\nGeneral\nComplete name        : All.Superheroes.Must.Die.2011.Swesub.DVDRip.Xvid.avi\nFormat                         : AVI\nFormat/Info                    : Audio Video Interleave\nFile size                      : 700 MiB\nDuration                       : 1h 14mn\nOverall bit rate mode          : Variable\n\nVideo\nID                             : 0\nFormat                         : MPEG-4 Visual\nFormat profile                 : Advanced Simple@L5\nFormat settings, BVOP          : Yes\nFormat settings, QPel          : No\nFormat settings, GMC           : No warppoints\nFormat settings, Matrix        : Default (H.263)\nCodec ID                       : XVID\nCodec ID/Hint                  : XviD\nDuration                       : 1h 14mn\nBit rate                       : 1 171 Kbps\nWidth                          : 720 pixels\nHeight                         : 304 pixels\nDisplay aspect ratio           : 2.35:1\nFrame rate                     : 25.000 fps\nColor space                    : YUV\nChroma subsampling             : 4:2:0\nBit depth                      : 8 bits\nScan type                      : Progressive\nCompression mode               : Lossy\nBits/(Pixel*Frame)             : 0.214\nStream size                    : 624 MiB (89%)\n\n\nAudio\nID                             : 1\nFormat                         : MPEG Audio\nFormat version                 : Version 1\nFormat profile                 : Layer 3\nCodec ID                       : 55\nCodec ID/Hint                  : MP3\nDuration                       : 1h 14mn\nBit rate mode                  : Variable\nBit rate                       : 130 Kbps\nMinimum bit rate               : 32.0 Kbps\nChannel count                  : 2 channels\nSampling rate                  : 48.0 KHz\nCompression mode               : Lossy\nStream size                    : 69.2 MiB (10%)\nAlignment                      : Aligned on interleaves\nInterleave, duration           : 24 ms (0.60 video frame)\nInterleave, preload duration   : 141 ms\nWriting library                : LAME3.99r\nEncoding settings              : -m s -V 5 -q 0 -lowpass 17 --vbr-new -b 32\n\n","torrent":{"xt":"urn:btih:b0db5a8e864c260c15a314224bf1db430d56d1dd","amp;dn":"All.Superheroes.Must.Die.2011.Swesub.DVDRip.Xvid.avi","amp;tr":["udp%3A%2F%2Ftracker.openbittorrent.com%3A80","udp%3A%2F%2Fopen.demonii.com%3A1337","udp%3A%2F%2Ftracker.coppersurfer.tk%3A6969","udp%3A%2F%2Fexodus.desync.com%3A6969"],"infoHash":"b0db5a8e864c260c15a314224bf1db430d56d1dd","infoHashBuffer":{"type":"Buffer","data":[176,219,90,142,134,76,38,12,21,163,20,34,75,241,219,67,13,86,209,221]},"announce":[],"urlList":[]}}